<svg width="215" height="214" viewBox="0 0 215 215" xmlns="http://www.w3.org/2000/svg"><path d="M107.5 161.3l-17.694 52.234.225-55.149-33.695 43.658 18.12-52.087-46.046 30.352 34.05-43.382-53.406 13.756 46.292-29.975-54.979-4.33 53.517-13.32L3.289 81.11l54.942 4.779-40.726-37.186 50.413 22.36-26.446-48.396 40.422 37.517-9.3-54.36 26.05 48.61L107.5 0l8.855 54.434 26.05-48.61-9.299 54.36 40.422-37.517-26.446 48.395 50.413-22.359L156.77 85.89l54.942-4.779-50.595 21.947 53.517 13.32-54.98 4.33 46.293 29.975-53.406-13.756 34.05 43.382-46.045-30.352 18.12 52.087-33.696-43.658.225 55.149z" fill="#FFCF65" fill-rule="evenodd"/></svg>
